<svg id="Layer_1" data-name="Layer 1" xmlns="http://www.w3.org/2000/svg" viewBox="0 0 110.75 103.14"><defs><style>.cls-1{fill:#fff;fill-rule:evenodd;}</style></defs><g id="VPro_logo" data-name="VPro logo"><g id="icon"><path class="cls-1" d="M73.57,25.58c0-6.52,5.64-12,12.07-14L.43.43,21,50a4.44,4.44,0,0,0,2.05-3.27V18.51c0-1.84-.71-4.12-4.08-2.16,0-.59-.06-2.2-.06-2.2s8.62-3.9,10-3.22v8.78c.81-2.42,6.29-8.78,10.52-8.78,9.9,0,11,7.13,10.5,14S44.41,41.72,30.21,40.57A1.71,1.71,0,0,1,29,39.7v6.9c0,.81.17,4,4.48,4v2.07H22.12l21.17,50.94L92.67,39.06a19.13,19.13,0,0,1-7,1.34C77.45,40.4,73.57,33.76,73.57,25.58Zm-2.65-4.51c-.48-2.89-1.07-5.5-3.66-4.81s-6.06,8.47-6.06,11.9v6.07c0,1.34,1,3.72,6.34,3.72v1.93H51V38a4.1,4.1,0,0,0,4.14-3.59V16.58c-1.24-1.46-4.28-.13-4.28-.68V13.83s6.48-2.9,10.34-2.9v7c0,.28,2.31-3.68,5.78-5.94,2.72-1.77,7-1,7-.75,0,.37,0,8.23,0,9.72C74,21.32,72.56,21.76,70.92,21.07Zm40.26-6.18L97.85,13.15c3.26,2.64,4.84,7.21,4.84,12.43,0,.14,0,.28,0,.42Zm-75.46,23c3.12,0,8.28-4.08,8.28-12,0-5.74-2-10.74-6.09-10.74-3,0-9,7.76-9,15C29,37.75,33.19,37.93,35.72,37.93ZM87.53,14c-4.66,0-8.44,5.21-8.44,11.63s5.16,11.63,9.82,11.63,8.44-5.2,8.44-11.63S92.19,14,87.53,14Z" transform="translate(-0.43 -0.43)"/></g></g></svg>